# xmcd
#
# Track frame offsets:
#	150
#	19920
#	34785
#	52248
#	69953
#	90675
#	106788
#	123335
#	143310
#	162560
#	177270
#	194813
#	210385
#	230350
#
# Disc length: 3316 seconds
#
# Revision: 0
# Processed by: cddbd v1.5.2PL0 Copyright (c) Steve Scherf et al.
# Submitted via: EasyCDDAExtractor 12.0.1.1
#
DISCID=be0cf20e
DTITLE=Roxette - Joyride
DYEAR=1991
DGENRE=
TTITLE0=Joyride
TTITLE1=Hotblooded
TTITLE2=Fading Like A Flower (Every Time You Leave)
TTITLE3=Knockin' On Every Door
TTITLE4=Spending My Time
TTITLE5=Soul Deep
TTITLE6=Watercolours In The Rain
TTITLE7=The Big L.
TTITLE8=(Do You Get) Excited?
TTITLE9=Church Of Your Heart
TTITLE10=Small Talk
TTITLE11=Physical Fascination
TTITLE12=Things Will Never Be The Same
TTITLE13=Perfect Day
EXTD=
EXTT0=
EXTT1=
EXTT2=
EXTT3=
EXTT4=
EXTT5=
EXTT6=
EXTT7=
EXTT8=
EXTT9=
EXTT10=
EXTT11=
EXTT12=
EXTT13=
PLAYORDER=
